<svg xmlns="http://www.w3.org/2000/svg" xmlns:xlink="http://www.w3.org/1999/xlink" viewBox="0 0 89 73"><defs><path id="a" d="M0 .19h88.04v71.526H0z"/></defs><g fill="none" fill-rule="evenodd"><g transform="translate(0 .094)"><mask id="b" fill="#fff"><use xlink:href="#a"/></mask><path d="M56.512 65.455L79.59 6.834l7.508-1.735-26.413 64.228-4.172-3.872zM78.92 6.989L56.066 65.04 10.547 22.788l68.372-15.8zM53.829 70.72L1.143 20.106 81.279.993l-2.108 5.356L9.378 22.476l46.465 43.131-2.013 5.114zM88.04 4.3l-8.198 1.895L82.205.189 0 19.795l54.047 51.921 2.242-5.695 4.609 4.278 27.141-66z" fill="#B09832" mask="url(#b)"/></g><path d="M34.73 34.804h-.046l-2.68-6.982h-1.482v8.464h.908v-5.384c0-.818-.026-1.524-.08-2.119h.046l2.871 7.503h.794l2.894-7.491h.046a27.814 27.814 0 00-.08 2.038v5.453h.984v-8.464h-1.47l-2.704 6.982zm10.333 1.482v-3.282l2.825-5.182h-1.065l-2.258 4.232-2.24-4.232h-1.077l2.82 5.228v3.236zm7.617-4.683c-.528-.19-.92-.362-1.177-.519-.257-.156-.44-.328-.547-.515-.108-.187-.163-.427-.163-.72 0-.398.147-.709.44-.933.294-.223.7-.335 1.222-.335.66 0 1.34.146 2.038.44l.307-.857a5.735 5.735 0 00-2.322-.463c-.807 0-1.455.193-1.945.579-.49.386-.735.905-.735 1.557 0 .621.169 1.125.506 1.511.338.386.9.72 1.688 1.002.563.2.983.38 1.26.538.275.158.472.33.59.518.117.187.176.427.176.72 0 .445-.166.79-.498 1.04-.332.249-.826.373-1.482.373-.401 0-.806-.042-1.216-.127a6.1 6.1 0 01-1.134-.347v.95c.54.258 1.312.387 2.315.387.927 0 1.66-.208 2.2-.625.54-.417.81-.998.81-1.743 0-.579-.166-1.05-.5-1.412-.334-.363-.944-.703-1.832-1.02m7.831-2.723l2.739 7.422h1.019l-3.33-8.499h-.827l-3.346 8.499h.995z" fill="#2D333A"/></g></svg>