<svg width="212" height="38" viewBox="0 0 212 38" fill="none" xmlns="http://www.w3.org/2000/svg">
<g filter="url(#filter0_dd_5_46912)">
<path d="M16.1842 6.00722C15.5832 6.07848 15.1507 6.19475 14.7594 6.38979C13.9075 6.81736 13.2765 7.7644 12.9938 9.03399C12.8721 9.58347 12.8477 9.85726 12.8421 10.6843C12.8365 11.47 12.8253 11.5901 12.7186 11.9708C12.5837 12.4508 12.3946 12.8353 11.9603 13.501C11.8554 13.6623 11.7356 13.8517 11.6944 13.923C10.5036 15.9708 10.8519 18.315 12.6811 20.571C12.8103 20.7323 13.108 21.0511 13.43 21.3736C14.1003 22.0488 14.237 22.2213 14.4898 22.7145C14.7201 23.1665 15.0402 24.0816 15.2574 24.9086C15.5083 25.865 15.4521 26.6564 15.0964 27.1815C14.8661 27.521 14.6957 27.6297 14.325 27.6766C14.1247 27.7029 13.8944 27.6841 13.3158 27.596C12.7036 27.5022 12.2898 27.5191 12.1606 27.641C12.1044 27.6916 12.1119 27.7385 12.1906 27.806C12.4115 28.001 13.1267 28.1604 13.4488 28.0854C13.4956 28.0761 13.5911 28.0404 13.6641 28.0085C13.7352 27.9785 13.8419 27.9467 13.9 27.9429C13.9917 27.9335 14.0123 27.9373 14.0479 27.9729C14.0685 27.9935 14.0872 28.0273 14.0872 28.0442C14.0872 28.1061 14.0161 28.1961 13.9262 28.2486C13.8457 28.2955 13.8139 28.3011 13.5836 28.3142C13.3083 28.3292 13.1922 28.3574 12.9545 28.4717C12.61 28.6387 12.331 28.8918 12.3722 28.9987C12.3872 29.04 12.5014 29.0812 12.5969 29.0812C12.8421 29.0812 13.1454 28.9818 13.8625 28.6724C14.4635 28.4117 14.6957 28.3311 14.8942 28.318C15.102 28.303 15.1544 28.333 15.2406 28.5168C15.278 28.5955 15.3473 28.7174 15.3941 28.7906C15.4933 28.9387 15.7554 29.2219 15.8322 29.2613C15.9857 29.34 15.9764 29.2481 15.7985 28.8993C15.6263 28.5655 15.6019 28.4999 15.6019 28.3742C15.6019 28.2486 15.6412 28.1754 15.7405 28.1173C15.8584 28.0479 16.0026 28.0179 16.4089 27.9748C16.7852 27.9373 17.008 27.8904 17.1559 27.8191C17.3694 27.716 17.2626 27.686 16.48 27.6372C16.1449 27.6166 16.0456 27.5922 15.9333 27.5022C15.6693 27.2903 15.7629 26.7371 16.1692 26.1238C16.2703 25.9701 16.3677 25.8557 16.5774 25.6494C16.8676 25.3606 16.9069 25.3024 16.9631 25.0868C17.0043 24.9255 16.9893 24.6086 16.9256 24.2541C16.8507 23.8491 16.862 23.5828 16.9631 23.3634C17.126 23.0052 17.4986 22.947 17.7925 23.234C17.9966 23.4346 18.0808 23.6372 18.1782 24.1585C18.2831 24.7342 18.3299 24.8674 18.4928 25.0849C18.7418 25.415 18.8485 25.6063 18.9459 25.8988C19.0507 26.2139 19.075 26.4426 19.0619 26.9996C19.0544 27.3128 19.0413 27.521 19.0226 27.6016C18.9327 28.0085 18.6444 28.2561 18.1745 28.3292C17.8786 28.3742 17.3432 28.3424 16.8021 28.2467C16.2853 28.1548 16.0719 28.2148 16.2797 28.3949C16.3808 28.4811 16.5849 28.5655 16.7908 28.6049C16.9387 28.6349 16.9987 28.6349 17.3151 28.618C17.9985 28.5786 17.991 28.618 17.2421 28.9218C16.7777 29.1094 16.5662 29.2144 16.48 29.2988C16.3508 29.4225 16.3958 29.475 16.6279 29.475C17.0361 29.475 17.9479 29.2331 18.4328 28.9968C18.8054 28.8149 18.9814 28.8487 19.0769 29.1187C19.0919 29.1637 19.1256 29.325 19.1518 29.4769C19.2024 29.7864 19.251 29.912 19.3372 29.9645C19.4495 30.0339 19.5019 30.0058 19.575 29.8426C19.633 29.7113 19.6424 29.5032 19.6012 29.2519C19.5675 29.0343 19.5693 28.8149 19.6087 28.6837C19.6667 28.4924 19.8502 28.3048 20.1423 28.1323C20.3576 28.0067 20.3407 27.9898 19.985 27.9748C19.7023 27.9617 19.6349 27.9392 19.5731 27.8379C19.5244 27.7572 19.5244 27.6016 19.575 27.4403C19.5955 27.3709 19.7247 27.0465 19.8614 26.7202C20.2359 25.8275 20.337 25.4937 20.3538 25.0755C20.3669 24.798 20.3314 24.603 20.2284 24.3742C20.0955 24.076 20.0823 23.8697 20.1816 23.6728C20.2714 23.4946 20.44 23.3634 20.7021 23.2715C20.8163 23.2321 20.8725 23.2246 21.0616 23.2227C21.2507 23.2208 21.3068 23.2283 21.4173 23.264C21.7038 23.3615 21.9603 23.5078 22.522 23.8941C23.0855 24.2841 23.3551 24.4379 23.6472 24.5336C23.8569 24.603 23.9599 24.5973 24.267 24.4979C24.7781 24.3348 25.0608 24.3348 25.5476 24.4961C25.7461 24.5636 26.1318 24.7586 26.4014 24.933C26.598 25.0568 26.7478 25.143 26.7721 25.143C26.7777 25.143 26.7815 25.1318 26.7815 25.1168C26.7815 25.0774 26.6523 24.9105 26.2853 24.4773C26.1037 24.2598 25.9127 24.0235 25.8622 23.9522C25.5926 23.5659 25.4053 23.4159 25.0402 23.2883C24.8099 23.2096 24.692 23.1833 24.1696 23.1008C23.9131 23.0596 23.5255 22.9864 23.3083 22.9395C23.093 22.8927 22.6455 22.7933 22.316 22.722C21.378 22.5157 21.0709 22.4369 20.5373 22.2607C19.1087 21.79 18.1745 21.0811 17.3694 19.8527C17.0361 19.3445 16.8058 18.7707 16.701 18.195C16.5212 17.2142 16.7384 16.3403 17.3394 15.6126C17.4948 15.4251 17.6914 15.2432 17.9723 15.0294C18.298 14.78 18.4759 14.6056 18.5452 14.4612C18.5976 14.3543 18.6032 14.3299 18.5957 14.2061C18.5864 14.0149 18.5283 13.9023 18.1876 13.4223C17.5697 12.554 17.2102 11.9783 16.9219 11.3969C16.6804 10.9074 16.6635 10.8549 16.6616 10.553C16.6616 10.3392 16.6691 10.2792 16.7047 10.1592C16.8152 9.80663 17.0024 9.50658 17.3619 9.10901C17.7363 8.69644 17.8374 8.52391 17.8056 8.357C17.8 8.31762 17.7569 8.24636 17.7026 8.1826C17.5903 8.04945 17.5603 7.95381 17.5603 7.72127C17.5603 7.50185 17.6034 7.37246 17.7551 7.13242C17.8562 6.97114 17.8599 6.95988 17.858 6.84174C17.8562 6.69359 17.8131 6.59607 17.6858 6.46105C17.5173 6.27914 17.2495 6.13662 16.9294 6.05223C16.7777 6.01285 16.3527 5.98659 16.1842 6.00722Z" fill="white"/>
<path d="M17.9348 7.28244C17.9049 7.29744 17.8562 7.34245 17.8262 7.38371C17.6259 7.66688 17.7139 8.11696 18.0097 8.3195L18.1033 8.38138L18.3205 8.37013C18.5939 8.357 18.6837 8.37388 19.0357 8.5014C19.3409 8.61205 19.4458 8.62705 19.4795 8.56329C19.515 8.49765 19.4795 8.41889 19.3316 8.23136C19.0339 7.86004 18.871 7.72689 18.5714 7.60875C18.4928 7.57687 18.4197 7.52623 18.3224 7.43434C18.137 7.25994 18.049 7.22431 17.9348 7.28244Z" fill="white"/>
<path d="M18.8129 13.8029C18.8073 13.818 18.811 13.863 18.8223 13.9023C18.8972 14.1893 18.8841 14.3956 18.7755 14.6187C18.6912 14.7931 18.5059 14.9825 18.0471 15.367C17.5772 15.7608 17.3956 15.9596 17.2271 16.2728C17.0267 16.6441 16.9032 17.2873 16.9481 17.7224C17.0361 18.5531 17.4162 19.3352 18.1876 20.2709C19.0207 21.2836 19.8633 21.8425 21.0335 22.1613C21.4042 22.2625 21.612 22.2738 21.7899 22.2025C21.8648 22.1725 21.9135 22.0956 21.9135 22.0056C21.9135 21.9812 21.934 21.9212 21.9603 21.8687C22.0258 21.7375 22.1344 21.6718 22.4134 21.5912C22.6867 21.5143 22.7597 21.4805 22.8215 21.4074C22.8702 21.3493 22.9058 21.2461 22.9058 21.1617C22.9058 21.1336 22.8852 21.0042 22.859 20.8748C22.7859 20.5072 22.7916 20.4735 22.9563 20.346C23.1716 20.1753 23.2522 19.9671 23.1773 19.7852C23.151 19.7215 22.7466 19.2939 22.7298 19.3127C22.726 19.3164 22.7354 19.3877 22.7504 19.4702C22.8197 19.8546 22.7092 20.1791 22.3778 20.5766C22.0089 21.0173 21.7318 21.2574 21.4173 21.4111C21.1177 21.5574 20.8294 21.6062 20.5261 21.563C20.1741 21.5124 20.0505 21.3793 20.1516 21.1561C20.1965 21.0586 20.3913 20.8504 20.5073 20.7754C20.5916 20.7191 20.659 20.7004 20.659 20.7304C20.659 20.751 20.6066 20.8242 20.5261 20.9254C20.4156 21.0586 20.4044 21.0905 20.4493 21.1355C20.586 21.2724 21.202 21.1111 21.5877 20.8392C21.7393 20.7304 21.9809 20.4716 22.1082 20.2784C22.3797 19.8715 22.477 19.4814 22.3797 19.1926C22.3104 18.9882 21.8872 17.9268 21.6701 17.4148C20.8762 15.547 20.1685 14.4462 19.5319 14.0899C19.3802 14.0055 18.9421 13.8029 18.8766 13.7879C18.8391 13.7786 18.8223 13.7823 18.8129 13.8029Z" fill="white"/>
<path d="M23.299 20.0422C23.2466 20.0947 23.2522 20.1247 23.3346 20.2578C23.4188 20.3891 23.4675 20.4979 23.4675 20.5504C23.4675 20.6048 23.4038 20.5954 23.2634 20.5166C23.1155 20.436 23.0556 20.4397 22.9994 20.5354C22.9507 20.6141 22.9526 20.7192 23.0013 20.8579C23.1136 21.1749 23.035 21.5649 22.8421 21.6456C22.8103 21.6587 22.7092 21.6887 22.6175 21.7093C22.419 21.7562 22.2467 21.8443 22.1793 21.9325C22.1194 22.0113 22.1138 22.1369 22.1681 22.2457C22.2505 22.4163 22.741 22.6076 23.2765 22.677C23.4712 22.7032 23.5255 22.7032 23.827 22.6751C24.2164 22.6414 24.3063 22.6489 24.5534 22.7501C24.7556 22.8326 24.8324 22.8458 24.9185 22.8176C25.0009 22.7914 25.1114 22.6957 25.1357 22.6357C25.1582 22.5776 25.117 22.4801 25.0327 22.3863C24.956 22.3001 24.9373 22.2513 24.9653 22.1988C24.9953 22.1406 25.0721 22.12 25.1994 22.1313C25.3192 22.1444 25.3417 22.1369 25.3754 22.0731C25.4353 21.9587 25.3698 21.7975 25.19 21.6174C25.0346 21.4599 24.2782 20.9686 24.2445 21.0023C24.2389 21.008 24.2819 21.0773 24.3419 21.1599C24.574 21.4843 24.6658 21.6737 24.6658 21.8293C24.6658 21.9887 24.5328 22.1894 24.355 22.3038C24.1808 22.4163 24.0348 22.452 23.7577 22.4501C23.4694 22.4501 23.3214 22.4182 23.1024 22.3113C22.9264 22.2269 22.8365 22.1444 22.8197 22.0563C22.8047 21.9775 22.8534 21.8894 22.9414 21.8293C23.0893 21.7281 23.2278 21.76 23.3065 21.9119C23.3851 22.0675 23.4768 22.1238 23.6454 22.1238C23.8232 22.1238 24.0816 22.015 24.2089 21.8875C24.3625 21.7356 24.3419 21.5687 24.1209 21.1298C23.8869 20.6648 23.6379 20.2691 23.46 20.074C23.3851 19.9953 23.3533 19.9878 23.299 20.0422Z" fill="white"/>
</g>
<path d="M38.877 23.6348H35V9.57227H38.877V15.7148H44.0137V9.57227H47.8906V23.6348H44.0137V17.502H38.877V23.6348Z" fill="white"/>
<path d="M62.002 23.6348H58.7012V22.2871C58.3105 22.821 57.8385 23.2181 57.2852 23.4785C56.7383 23.7324 56.1361 23.8594 55.4785 23.8594C54.6191 23.8594 53.8509 23.7064 53.1738 23.4004C52.4967 23.0944 51.9238 22.6777 51.4551 22.1504C50.9863 21.6165 50.6283 20.9915 50.3809 20.2754C50.1335 19.5592 50.0098 18.791 50.0098 17.9707C50.0098 17.1504 50.1335 16.3822 50.3809 15.666C50.6283 14.9499 50.9863 14.3281 51.4551 13.8008C51.9238 13.2669 52.4967 12.847 53.1738 12.541C53.8509 12.235 54.6191 12.082 55.4785 12.082C55.9147 12.082 56.3281 12.1471 56.7188 12.2773C57.1159 12.4076 57.4772 12.5931 57.8027 12.834C58.1348 13.0684 58.4245 13.3548 58.6719 13.6934C58.9258 14.0254 59.1243 14.3965 59.2676 14.8066L60.7324 12.3555H62.002V23.6348ZM58.6816 17.9707C58.6816 17.6777 58.6654 17.3685 58.6328 17.043C58.6068 16.7174 58.5579 16.3952 58.4863 16.0762C58.4147 15.7572 58.3138 15.4544 58.1836 15.168C58.0599 14.875 57.8971 14.6178 57.6953 14.3965C57.5 14.1686 57.2624 13.9896 56.9824 13.8594C56.7025 13.7292 56.377 13.6641 56.0059 13.6641C55.6348 13.6641 55.3125 13.7324 55.0391 13.8691C54.7656 13.9993 54.5312 14.1784 54.3359 14.4062C54.1406 14.6276 53.9779 14.8848 53.8477 15.1777C53.724 15.4707 53.6263 15.7767 53.5547 16.0957C53.4831 16.4147 53.431 16.737 53.3984 17.0625C53.3724 17.3815 53.3594 17.6842 53.3594 17.9707C53.3594 18.2572 53.3724 18.5632 53.3984 18.8887C53.431 19.2142 53.4831 19.5365 53.5547 19.8555C53.6263 20.1745 53.724 20.4805 53.8477 20.7734C53.9779 21.0664 54.1406 21.3268 54.3359 21.5547C54.5312 21.776 54.7656 21.9551 55.0391 22.0918C55.3125 22.222 55.6348 22.2871 56.0059 22.2871C56.3444 22.2871 56.6439 22.2188 56.9043 22.082C57.1712 21.9388 57.4023 21.75 57.5977 21.5156C57.7995 21.2812 57.9688 21.0143 58.1055 20.7148C58.2422 20.4154 58.3529 20.1061 58.4375 19.7871C58.5221 19.4681 58.584 19.1523 58.623 18.8398C58.6621 18.5208 58.6816 18.2311 58.6816 17.9707Z" fill="white"/>
<path d="M73.7012 23.6348H64.1504V22.3262L70.0586 13.6641H64.1504V12.3555H73.7012V13.6641L67.793 22.3262H73.7012V23.6348Z" fill="white"/>
<path d="M78.1836 18.2832C78.5872 18.3743 78.9909 18.446 79.3945 18.498C79.7982 18.5501 80.2051 18.5762 80.6152 18.5762C81.0449 18.5762 81.4421 18.5371 81.8066 18.459C82.1777 18.3743 82.4967 18.2376 82.7637 18.0488C83.0371 17.8535 83.252 17.5964 83.4082 17.2773C83.5645 16.9583 83.6426 16.5612 83.6426 16.0859C83.6426 15.7018 83.5905 15.3503 83.4863 15.0312C83.3822 14.7122 83.2259 14.4388 83.0176 14.2109C82.8158 13.9831 82.5651 13.8073 82.2656 13.6836C81.9661 13.5534 81.6178 13.4883 81.2207 13.4883C80.8496 13.4883 80.5143 13.5566 80.2148 13.6934C79.9219 13.8301 79.6615 14.0156 79.4336 14.25C79.2122 14.4779 79.0202 14.7448 78.8574 15.0508C78.7012 15.3568 78.571 15.6758 78.4668 16.0078C78.3626 16.3398 78.2878 16.6751 78.2422 17.0137C78.1966 17.3522 78.1738 17.6712 78.1738 17.9707C78.1738 18.0228 78.1738 18.0749 78.1738 18.127C78.1738 18.179 78.1771 18.2311 78.1836 18.2832ZM86.3184 16.0566C86.3184 16.5189 86.2435 16.9323 86.0938 17.2969C85.944 17.6549 85.7389 17.9707 85.4785 18.2441C85.2246 18.5176 84.9284 18.7487 84.5898 18.9375C84.2513 19.1263 83.89 19.2826 83.5059 19.4062C83.1217 19.5234 82.7246 19.6081 82.3145 19.6602C81.9108 19.7122 81.5169 19.7383 81.1328 19.7383C80.6445 19.7383 80.1628 19.7057 79.6875 19.6406C79.2122 19.569 78.7435 19.4583 78.2812 19.3086C78.3529 19.7383 78.4668 20.1484 78.623 20.5391C78.7793 20.9232 78.9876 21.2617 79.248 21.5547C79.5085 21.8411 79.8275 22.069 80.2051 22.2383C80.5892 22.4076 81.0417 22.4922 81.5625 22.4922C81.9076 22.4922 82.2363 22.4401 82.5488 22.3359C82.8613 22.2318 83.1478 22.0853 83.4082 21.8965C83.6686 21.7077 83.8965 21.4831 84.0918 21.2227C84.2936 20.9622 84.4564 20.6725 84.5801 20.3535L86.0059 20.8809C85.791 21.3952 85.4948 21.8411 85.1172 22.2188C84.7461 22.5898 84.3229 22.8991 83.8477 23.1465C83.3789 23.3874 82.8776 23.5664 82.3438 23.6836C81.8164 23.8008 81.2923 23.8594 80.7715 23.8594C79.9121 23.8594 79.1178 23.7161 78.3887 23.4297C77.6595 23.1367 77.0312 22.7298 76.5039 22.209C75.9766 21.6882 75.5632 21.0664 75.2637 20.3438C74.9642 19.6211 74.8145 18.8301 74.8145 17.9707C74.8145 17.1113 74.9642 16.3203 75.2637 15.5977C75.5632 14.875 75.9766 14.2533 76.5039 13.7324C77.0312 13.2116 77.6595 12.8079 78.3887 12.5215C79.1178 12.2285 79.9121 12.082 80.7715 12.082C81.1882 12.082 81.6146 12.1113 82.0508 12.1699C82.487 12.2285 82.9102 12.3229 83.3203 12.4531C83.7305 12.5768 84.1178 12.7396 84.4824 12.9414C84.847 13.1432 85.1628 13.3939 85.4297 13.6934C85.7031 13.9863 85.918 14.3281 86.0742 14.7188C86.237 15.1094 86.3184 15.5553 86.3184 16.0566Z" fill="white"/>
<path d="M91.6797 23.6348H88.3789V7.16016H89.6484L91.6797 10.5879V23.6348Z" fill="white"/>
<path d="M105.791 22.2773C105.791 23.1758 105.658 24.0221 105.391 24.8164C105.124 25.6107 104.736 26.304 104.229 26.8965C103.721 27.4954 103.096 27.9674 102.354 28.3125C101.618 28.6641 100.778 28.8398 99.834 28.8398C99.3131 28.8398 98.7858 28.7812 98.252 28.6641C97.7246 28.5469 97.2233 28.3646 96.748 28.1172C96.2793 27.8763 95.8561 27.5671 95.4785 27.1895C95.1074 26.8184 94.8145 26.3789 94.5996 25.8711L96.0254 25.334C96.1491 25.653 96.3086 25.946 96.5039 26.2129C96.7057 26.4798 96.9368 26.7077 97.1973 26.8965C97.4577 27.0918 97.7441 27.2415 98.0566 27.3457C98.3691 27.4564 98.6979 27.5117 99.043 27.5117C99.694 27.5117 100.238 27.3783 100.674 27.1113C101.117 26.8444 101.471 26.4961 101.738 26.0664C102.005 25.6367 102.197 25.1484 102.314 24.6016C102.432 24.0612 102.49 23.5111 102.49 22.9512V22.2871C102.1 22.821 101.628 23.2181 101.074 23.4785C100.527 23.7324 99.9251 23.8594 99.2676 23.8594C98.4082 23.8594 97.64 23.7064 96.9629 23.4004C96.2858 23.0944 95.7129 22.6777 95.2441 22.1504C94.7754 21.6165 94.4173 20.9915 94.1699 20.2754C93.9225 19.5592 93.7988 18.791 93.7988 17.9707C93.7988 17.1504 93.9225 16.3822 94.1699 15.666C94.4173 14.9499 94.7754 14.3281 95.2441 13.8008C95.7129 13.2669 96.2858 12.847 96.9629 12.541C97.64 12.235 98.4082 12.082 99.2676 12.082C99.7038 12.082 100.117 12.1471 100.508 12.2773C100.905 12.4076 101.266 12.5931 101.592 12.834C101.924 13.0684 102.214 13.3548 102.461 13.6934C102.715 14.0254 102.913 14.3965 103.057 14.8066L104.521 12.3555H105.791V22.2773ZM102.471 17.9707C102.471 17.6777 102.454 17.3685 102.422 17.043C102.396 16.7174 102.347 16.3952 102.275 16.0762C102.204 15.7572 102.103 15.4544 101.973 15.168C101.849 14.875 101.686 14.6178 101.484 14.3965C101.289 14.1686 101.051 13.9896 100.771 13.8594C100.492 13.7292 100.166 13.6641 99.7949 13.6641C99.4238 13.6641 99.1016 13.7324 98.8281 13.8691C98.5547 13.9993 98.3203 14.1784 98.125 14.4062C97.9297 14.6276 97.7669 14.8848 97.6367 15.1777C97.513 15.4707 97.4154 15.7767 97.3438 16.0957C97.2721 16.4147 97.2201 16.737 97.1875 17.0625C97.1615 17.3815 97.1484 17.6842 97.1484 17.9707C97.1484 18.2572 97.1615 18.5632 97.1875 18.8887C97.2201 19.2142 97.2721 19.5365 97.3438 19.8555C97.4154 20.1745 97.513 20.4805 97.6367 20.7734C97.7669 21.0664 97.9297 21.3268 98.125 21.5547C98.3203 21.776 98.5547 21.9551 98.8281 22.0918C99.1016 22.222 99.4238 22.2871 99.7949 22.2871C100.133 22.2871 100.433 22.2188 100.693 22.082C100.96 21.9388 101.191 21.75 101.387 21.5156C101.589 21.2812 101.758 21.0143 101.895 20.7148C102.031 20.4154 102.142 20.1061 102.227 19.7871C102.311 19.4681 102.373 19.1523 102.412 18.8398C102.451 18.5208 102.471 18.2311 102.471 17.9707Z" fill="white"/>
<path d="M118.145 13.3516L116.289 16.4277C116.211 16.1673 116.11 15.8743 115.986 15.5488C115.863 15.2233 115.71 14.9206 115.527 14.6406C115.345 14.3542 115.127 14.1165 114.873 13.9277C114.619 13.7324 114.326 13.6348 113.994 13.6348C113.688 13.6348 113.421 13.7129 113.193 13.8691C112.972 14.0254 112.783 14.2305 112.627 14.4844C112.471 14.7318 112.34 15.015 112.236 15.334C112.139 15.6465 112.061 15.9655 112.002 16.291C111.95 16.61 111.914 16.9193 111.895 17.2188C111.875 17.5117 111.865 17.7656 111.865 17.9805V23.6348H108.555V12.3555H109.824L111.162 14.9824C111.344 14.5592 111.553 14.1719 111.787 13.8203C112.021 13.4622 112.292 13.1562 112.598 12.9023C112.904 12.6419 113.249 12.4401 113.633 12.2969C114.023 12.1536 114.463 12.082 114.951 12.082C115.205 12.082 115.488 12.1048 115.801 12.1504C116.113 12.1895 116.419 12.2611 116.719 12.3652C117.018 12.4629 117.295 12.5931 117.549 12.7559C117.803 12.9186 118.001 13.1172 118.145 13.3516Z" fill="white"/>
<path d="M131.152 17.9707C131.152 18.5566 131.074 19.1068 130.918 19.6211C130.762 20.1354 130.544 20.6107 130.264 21.0469C129.99 21.4831 129.658 21.877 129.268 22.2285C128.877 22.5736 128.447 22.8665 127.979 23.1074C127.516 23.3483 127.018 23.5339 126.484 23.6641C125.957 23.7943 125.413 23.8594 124.854 23.8594C124.294 23.8594 123.75 23.7943 123.223 23.6641C122.695 23.5339 122.197 23.3483 121.729 23.1074C121.266 22.8665 120.84 22.5736 120.449 22.2285C120.059 21.877 119.723 21.4831 119.443 21.0469C119.17 20.6107 118.955 20.1354 118.799 19.6211C118.643 19.1003 118.564 18.5501 118.564 17.9707C118.564 17.3913 118.643 16.8444 118.799 16.3301C118.955 15.8092 119.17 15.3307 119.443 14.8945C119.723 14.4583 120.059 14.0677 120.449 13.7227C120.84 13.3711 121.266 13.0749 121.729 12.834C122.197 12.5931 122.695 12.4076 123.223 12.2773C123.75 12.1471 124.294 12.082 124.854 12.082C125.413 12.082 125.957 12.1471 126.484 12.2773C127.018 12.4076 127.516 12.5931 127.979 12.834C128.447 13.0749 128.877 13.3711 129.268 13.7227C129.658 14.0677 129.99 14.4583 130.264 14.8945C130.544 15.3307 130.762 15.8092 130.918 16.3301C131.074 16.8444 131.152 17.3913 131.152 17.9707ZM127.793 17.9707C127.793 17.6582 127.773 17.3294 127.734 16.9844C127.702 16.6328 127.643 16.291 127.559 15.959C127.474 15.6204 127.357 15.2982 127.207 14.9922C127.064 14.6797 126.885 14.4095 126.67 14.1816C126.455 13.9473 126.198 13.7617 125.898 13.625C125.599 13.4818 125.251 13.4102 124.854 13.4102C124.476 13.4102 124.141 13.4818 123.848 13.625C123.555 13.7682 123.298 13.9603 123.076 14.2012C122.861 14.4355 122.679 14.709 122.529 15.0215C122.386 15.334 122.269 15.6595 122.178 15.998C122.087 16.3301 122.021 16.6686 121.982 17.0137C121.943 17.3522 121.924 17.6712 121.924 17.9707C121.924 18.2702 121.943 18.5924 121.982 18.9375C122.021 19.276 122.087 19.6146 122.178 19.9531C122.269 20.2917 122.386 20.6172 122.529 20.9297C122.679 21.2357 122.861 21.5091 123.076 21.75C123.298 21.9844 123.555 22.1732 123.848 22.3164C124.141 22.4596 124.476 22.5312 124.854 22.5312C125.244 22.5312 125.589 22.4629 125.889 22.3262C126.188 22.1829 126.445 21.9941 126.66 21.7598C126.882 21.5254 127.064 21.2552 127.207 20.9492C127.35 20.6432 127.464 20.321 127.549 19.9824C127.64 19.6439 127.702 19.3021 127.734 18.957C127.773 18.612 127.793 18.2832 127.793 17.9707Z" fill="white"/>
<path d="M132.666 18.8105C132.666 18.2962 132.708 17.7624 132.793 17.209C132.884 16.6556 133.011 16.1022 133.174 15.5488C133.343 14.9954 133.545 14.4486 133.779 13.9082C134.014 13.3678 134.277 12.8503 134.57 12.3555H136.982C136.82 12.8438 136.673 13.3548 136.543 13.8887C136.419 14.416 136.312 14.9466 136.221 15.4805C136.136 16.0078 136.068 16.5254 136.016 17.0332C135.97 17.541 135.947 18.013 135.947 18.4492C135.947 18.7031 135.957 18.9766 135.977 19.2695C136.003 19.556 136.045 19.8457 136.104 20.1387C136.162 20.4251 136.243 20.7018 136.348 20.9688C136.458 21.2357 136.598 21.4733 136.768 21.6816C136.937 21.8835 137.142 22.0462 137.383 22.1699C137.63 22.2871 137.92 22.3457 138.252 22.3457C138.577 22.3457 138.867 22.2741 139.121 22.1309C139.382 21.9811 139.609 21.7891 139.805 21.5547C140 21.3138 140.166 21.0404 140.303 20.7344C140.439 20.4284 140.55 20.1159 140.635 19.7969C140.726 19.4714 140.791 19.1556 140.83 18.8496C140.876 18.5371 140.898 18.2572 140.898 18.0098V12.3555H144.199V23.6348H142.93L141.416 21.0078C141.227 21.444 140.996 21.8411 140.723 22.1992C140.456 22.5508 140.15 22.8535 139.805 23.1074C139.46 23.3613 139.076 23.5566 138.652 23.6934C138.236 23.8301 137.783 23.8984 137.295 23.8984C136.514 23.8984 135.833 23.7715 135.254 23.5176C134.674 23.2637 134.193 22.9121 133.809 22.4629C133.424 22.0137 133.138 21.4798 132.949 20.8613C132.76 20.2363 132.666 19.5527 132.666 18.8105Z" fill="white"/>
<path d="M156.66 20.0312C156.66 20.526 156.589 20.9655 156.445 21.3496C156.302 21.7337 156.107 22.069 155.859 22.3555C155.612 22.6354 155.319 22.873 154.98 23.0684C154.642 23.2572 154.277 23.4102 153.887 23.5273C153.503 23.6445 153.099 23.7292 152.676 23.7812C152.253 23.8333 151.833 23.8594 151.416 23.8594C150.856 23.8594 150.361 23.8236 149.932 23.752C149.502 23.6803 149.092 23.5664 148.701 23.4102C148.311 23.2474 147.92 23.0391 147.529 22.7852C147.145 22.5312 146.715 22.222 146.24 21.8574L148.164 20.2852C148.34 20.6172 148.571 20.9199 148.857 21.1934C149.15 21.4603 149.453 21.6914 149.766 21.8867C150.078 22.082 150.381 22.2318 150.674 22.3359C150.967 22.4401 151.204 22.4922 151.387 22.4922C151.536 22.4922 151.706 22.4889 151.895 22.4824C152.083 22.4694 152.275 22.4499 152.471 22.4238C152.666 22.3913 152.858 22.3457 153.047 22.2871C153.236 22.2285 153.402 22.1504 153.545 22.0527C153.695 21.9486 153.812 21.8216 153.896 21.6719C153.988 21.5156 154.033 21.3301 154.033 21.1152C154.033 20.8939 153.975 20.7018 153.857 20.5391C153.747 20.3698 153.6 20.2233 153.418 20.0996C153.236 19.9759 153.027 19.8717 152.793 19.7871C152.559 19.7025 152.321 19.6276 152.08 19.5625C151.846 19.4974 151.618 19.4421 151.396 19.3965C151.175 19.3444 150.983 19.2956 150.82 19.25C150.521 19.1654 150.205 19.0807 149.873 18.9961C149.541 18.9049 149.212 18.804 148.887 18.6934C148.561 18.5762 148.249 18.4395 147.949 18.2832C147.656 18.127 147.396 17.9414 147.168 17.7266C146.947 17.5052 146.768 17.248 146.631 16.9551C146.501 16.6556 146.436 16.3073 146.436 15.9102C146.436 15.181 146.579 14.5723 146.865 14.084C147.158 13.5892 147.542 13.1953 148.018 12.9023C148.493 12.6029 149.033 12.3913 149.639 12.2676C150.244 12.1439 150.859 12.082 151.484 12.082C151.914 12.082 152.367 12.1276 152.842 12.2188C153.317 12.3034 153.779 12.4336 154.229 12.6094C154.678 12.7786 155.098 12.987 155.488 13.2344C155.879 13.4818 156.204 13.765 156.465 14.084L154.541 15.666C154.398 15.2754 154.209 14.9401 153.975 14.6602C153.747 14.3802 153.496 14.1523 153.223 13.9766C152.956 13.7943 152.679 13.6608 152.393 13.5762C152.113 13.4915 151.852 13.4492 151.611 13.4492C151.377 13.4492 151.113 13.459 150.82 13.4785C150.527 13.498 150.251 13.5534 149.99 13.6445C149.736 13.7357 149.518 13.8757 149.336 14.0645C149.16 14.2467 149.072 14.5007 149.072 14.8262C149.072 15.0605 149.124 15.2624 149.229 15.4316C149.339 15.5944 149.482 15.7376 149.658 15.8613C149.834 15.9785 150.033 16.0794 150.254 16.1641C150.482 16.2422 150.713 16.3138 150.947 16.3789C151.182 16.4375 151.41 16.4896 151.631 16.5352C151.852 16.5807 152.051 16.6296 152.227 16.6816C152.526 16.7663 152.842 16.8542 153.174 16.9453C153.512 17.0299 153.844 17.1309 154.17 17.248C154.495 17.3587 154.808 17.4922 155.107 17.6484C155.413 17.7982 155.68 17.9837 155.908 18.2051C156.136 18.4264 156.318 18.6868 156.455 18.9863C156.592 19.2793 156.66 19.6276 156.66 20.0312Z" fill="white"/>
<path d="M161.465 18.2832C161.868 18.3743 162.272 18.446 162.676 18.498C163.079 18.5501 163.486 18.5762 163.896 18.5762C164.326 18.5762 164.723 18.5371 165.088 18.459C165.459 18.3743 165.778 18.2376 166.045 18.0488C166.318 17.8535 166.533 17.5964 166.689 17.2773C166.846 16.9583 166.924 16.5612 166.924 16.0859C166.924 15.7018 166.872 15.3503 166.768 15.0312C166.663 14.7122 166.507 14.4388 166.299 14.2109C166.097 13.9831 165.846 13.8073 165.547 13.6836C165.247 13.5534 164.899 13.4883 164.502 13.4883C164.131 13.4883 163.796 13.5566 163.496 13.6934C163.203 13.8301 162.943 14.0156 162.715 14.25C162.493 14.4779 162.301 14.7448 162.139 15.0508C161.982 15.3568 161.852 15.6758 161.748 16.0078C161.644 16.3398 161.569 16.6751 161.523 17.0137C161.478 17.3522 161.455 17.6712 161.455 17.9707C161.455 18.0228 161.455 18.0749 161.455 18.127C161.455 18.179 161.458 18.2311 161.465 18.2832ZM169.6 16.0566C169.6 16.5189 169.525 16.9323 169.375 17.2969C169.225 17.6549 169.02 17.9707 168.76 18.2441C168.506 18.5176 168.21 18.7487 167.871 18.9375C167.533 19.1263 167.171 19.2826 166.787 19.4062C166.403 19.5234 166.006 19.6081 165.596 19.6602C165.192 19.7122 164.798 19.7383 164.414 19.7383C163.926 19.7383 163.444 19.7057 162.969 19.6406C162.493 19.569 162.025 19.4583 161.562 19.3086C161.634 19.7383 161.748 20.1484 161.904 20.5391C162.061 20.9232 162.269 21.2617 162.529 21.5547C162.79 21.8411 163.109 22.069 163.486 22.2383C163.87 22.4076 164.323 22.4922 164.844 22.4922C165.189 22.4922 165.518 22.4401 165.83 22.3359C166.143 22.2318 166.429 22.0853 166.689 21.8965C166.95 21.7077 167.178 21.4831 167.373 21.2227C167.575 20.9622 167.738 20.6725 167.861 20.3535L169.287 20.8809C169.072 21.3952 168.776 21.8411 168.398 22.2188C168.027 22.5898 167.604 22.8991 167.129 23.1465C166.66 23.3874 166.159 23.5664 165.625 23.6836C165.098 23.8008 164.574 23.8594 164.053 23.8594C163.193 23.8594 162.399 23.7161 161.67 23.4297C160.941 23.1367 160.312 22.7298 159.785 22.209C159.258 21.6882 158.844 21.0664 158.545 20.3438C158.245 19.6211 158.096 18.8301 158.096 17.9707C158.096 17.1113 158.245 16.3203 158.545 15.5977C158.844 14.875 159.258 14.2533 159.785 13.7324C160.312 13.2116 160.941 12.8079 161.67 12.5215C162.399 12.2285 163.193 12.082 164.053 12.082C164.469 12.082 164.896 12.1113 165.332 12.1699C165.768 12.2285 166.191 12.3229 166.602 12.4531C167.012 12.5768 167.399 12.7396 167.764 12.9414C168.128 13.1432 168.444 13.3939 168.711 13.6934C168.984 13.9863 169.199 14.3281 169.355 14.7188C169.518 15.1094 169.6 15.5553 169.6 16.0566Z" fill="white"/>
<path d="M190.928 16.9062V17.0918C190.915 17.6387 190.856 18.2051 190.752 18.791C190.654 19.377 190.514 19.9629 190.332 20.5488C190.15 21.1348 189.932 21.7142 189.678 22.2871C189.424 22.86 189.137 23.4069 188.818 23.9277C188.506 24.4551 188.167 24.9466 187.803 25.4023C187.438 25.8646 187.054 26.2715 186.65 26.623L185.195 25.7832C185.423 25.3991 185.628 24.9792 185.811 24.5234C185.999 24.0742 186.169 23.6022 186.318 23.1074C186.468 22.6126 186.595 22.1048 186.699 21.584C186.81 21.0632 186.901 20.5456 186.973 20.0312C187.044 19.5169 187.096 19.0124 187.129 18.5176C187.168 18.0163 187.188 17.541 187.188 17.0918C187.188 16.7402 187.184 16.3431 187.178 15.9004C187.178 15.4512 187.152 14.9954 187.1 14.5332C187.054 14.071 186.976 13.6217 186.865 13.1855C186.755 12.7428 186.589 12.349 186.367 12.0039C186.152 11.6589 185.872 11.3822 185.527 11.1738C185.189 10.9655 184.766 10.8613 184.258 10.8613C183.809 10.8613 183.421 10.9395 183.096 11.0957C182.777 11.2454 182.503 11.4505 182.275 11.7109C182.054 11.9648 181.875 12.2611 181.738 12.5996C181.608 12.9382 181.504 13.2962 181.426 13.6738C181.354 14.0449 181.305 14.4225 181.279 14.8066C181.26 15.1842 181.25 15.5423 181.25 15.8809V18.6055H185.459V20.2168H181.25V23.6348H177.373V16.4863C177.373 15.4642 177.536 14.5137 177.861 13.6348C178.187 12.7559 178.646 11.9941 179.238 11.3496C179.837 10.6986 180.553 10.1908 181.387 9.82617C182.227 9.45508 183.161 9.26953 184.189 9.26953C184.886 9.26953 185.537 9.37044 186.143 9.57227C186.755 9.76758 187.311 10.041 187.812 10.3926C188.314 10.7376 188.76 11.151 189.15 11.6328C189.548 12.1081 189.876 12.6289 190.137 13.1953C190.404 13.7617 190.605 14.3607 190.742 14.9922C190.879 15.6237 190.941 16.2617 190.928 16.9062Z" fill="white"/>
<path d="M202.676 13.3516L200.82 16.4277C200.742 16.1673 200.641 15.8743 200.518 15.5488C200.394 15.2233 200.241 14.9206 200.059 14.6406C199.876 14.3542 199.658 14.1165 199.404 13.9277C199.15 13.7324 198.857 13.6348 198.525 13.6348C198.219 13.6348 197.952 13.7129 197.725 13.8691C197.503 14.0254 197.314 14.2305 197.158 14.4844C197.002 14.7318 196.872 15.015 196.768 15.334C196.67 15.6465 196.592 15.9655 196.533 16.291C196.481 16.61 196.445 16.9193 196.426 17.2188C196.406 17.5117 196.396 17.7656 196.396 17.9805V23.6348H193.086V12.3555H194.355L195.693 14.9824C195.876 14.5592 196.084 14.1719 196.318 13.8203C196.553 13.4622 196.823 13.1562 197.129 12.9023C197.435 12.6419 197.78 12.4401 198.164 12.2969C198.555 12.1536 198.994 12.082 199.482 12.082C199.736 12.082 200.02 12.1048 200.332 12.1504C200.645 12.1895 200.951 12.2611 201.25 12.3652C201.549 12.4629 201.826 12.5931 202.08 12.7559C202.334 12.9186 202.533 13.1172 202.676 13.3516Z" fill="white"/>
<path d="M208.311 23.6348H205V13.6641H202.949V12.3555H205V8.20508H208.311V12.3555H211.729V13.6641H208.311V23.6348Z" fill="white"/>
<defs>
<filter id="filter0_dd_5_46912" x="0" y="0" width="38" height="38" filterUnits="userSpaceOnUse" color-interpolation-filters="sRGB">
<feFlood flood-opacity="0" result="BackgroundImageFix"/>
<feColorMatrix in="SourceAlpha" type="matrix" values="0 0 0 0 0 0 0 0 0 0 0 0 0 0 0 0 0 0 127 0" result="hardAlpha"/>
<feOffset dy="1"/>
<feGaussianBlur stdDeviation="1"/>
<feColorMatrix type="matrix" values="0 0 0 0 0.0627451 0 0 0 0 0.0941176 0 0 0 0 0.156863 0 0 0 0.06 0"/>
<feBlend mode="normal" in2="BackgroundImageFix" result="effect1_dropShadow_5_46912"/>
<feColorMatrix in="SourceAlpha" type="matrix" values="0 0 0 0 0 0 0 0 0 0 0 0 0 0 0 0 0 0 127 0" result="hardAlpha"/>
<feOffset dy="1"/>
<feGaussianBlur stdDeviation="1.5"/>
<feColorMatrix type="matrix" values="0 0 0 0 0.0627451 0 0 0 0 0.0941176 0 0 0 0 0.156863 0 0 0 0.1 0"/>
<feBlend mode="normal" in2="effect1_dropShadow_5_46912" result="effect2_dropShadow_5_46912"/>
<feBlend mode="normal" in="SourceGraphic" in2="effect2_dropShadow_5_46912" result="shape"/>
</filter>
</defs>
</svg>
