<svg width="16" height="24" viewBox="0 0 16 24" fill="none" xmlns="http://www.w3.org/2000/svg">
    <path d="M5.1842 0.00721931C4.58319 0.0784817 4.15068 0.194752 3.75937 0.389786C2.90747 0.81736 2.2765 1.7644 1.99379 3.03399C1.87208 3.58347 1.84775 3.85726 1.84213 4.68428C1.83651 5.47004 1.82528 5.59007 1.71856 5.97076C1.58375 6.45084 1.39465 6.83528 0.960271 7.50102C0.855421 7.6623 0.735594 7.85171 0.694403 7.92297C-0.496386 9.97083 -0.148136 12.315 1.68111 14.571C1.8103 14.7323 2.108 15.0511 2.43003 15.3736C3.10032 16.0488 3.237 16.2213 3.48976 16.7145C3.72005 17.1665 4.04022 18.0816 4.25741 18.9086C4.5083 19.865 4.45213 20.6564 4.09639 21.1815C3.86609 21.521 3.69571 21.6297 3.325 21.6766C3.12466 21.7029 2.89437 21.6841 2.31582 21.596C1.70358 21.5022 1.2898 21.5191 1.16061 21.641C1.10444 21.6916 1.11193 21.7385 1.19056 21.806C1.4115 22.001 2.12672 22.1604 2.44876 22.0854C2.49556 22.0761 2.59105 22.0404 2.66407 22.0085C2.73522 21.9785 2.84194 21.9467 2.89998 21.9429C2.99173 21.9335 3.01232 21.9373 3.04789 21.9729C3.06849 21.9935 3.08721 22.0273 3.08721 22.0442C3.08721 22.1061 3.01607 22.1961 2.92619 22.2486C2.84569 22.2955 2.81386 22.3011 2.58356 22.3142C2.30833 22.3292 2.19225 22.3574 1.95447 22.4717C1.60996 22.6387 1.33099 22.8918 1.37218 22.9987C1.38716 23.04 1.50137 23.0812 1.59686 23.0812C1.84213 23.0812 2.14544 22.9818 2.86254 22.6724C3.46355 22.4117 3.69571 22.3311 3.89418 22.318C4.102 22.303 4.15443 22.333 4.24056 22.5168C4.278 22.5955 4.34728 22.7174 4.39408 22.7906C4.49332 22.9387 4.75544 23.2219 4.8322 23.2613C4.98573 23.34 4.97637 23.2481 4.7985 22.8993C4.62625 22.5655 4.60191 22.4999 4.60191 22.3742C4.60191 22.2486 4.64123 22.1754 4.74046 22.1173C4.85842 22.0479 5.00258 22.0179 5.40888 21.9748C5.78521 21.9373 6.00801 21.8904 6.15593 21.8191C6.36937 21.716 6.26265 21.686 5.48002 21.6372C5.14488 21.6166 5.04565 21.5922 4.93331 21.5022C4.66931 21.2903 4.76293 20.7371 5.16922 20.1238C5.27033 19.9701 5.36769 19.8557 5.57738 19.6494C5.86759 19.3606 5.90691 19.3024 5.96308 19.0868C6.00427 18.9255 5.98929 18.6086 5.92563 18.2541C5.85074 17.8491 5.86197 17.5828 5.96308 17.3634C6.12597 17.0052 6.49856 16.947 6.79251 17.234C6.99659 17.4346 7.08085 17.6372 7.17821 18.1585C7.28306 18.7342 7.32986 18.8674 7.49276 19.0849C7.74177 19.415 7.84849 19.6063 7.94585 19.8988C8.0507 20.2139 8.07504 20.4426 8.06194 20.9996C8.05445 21.3128 8.04134 21.521 8.02262 21.6016C7.93275 22.0085 7.64441 22.2561 7.17446 22.3292C6.87864 22.3742 6.34316 22.3424 5.80206 22.2467C5.2853 22.1548 5.07186 22.2148 5.27969 22.3949C5.38079 22.4811 5.58487 22.5655 5.79083 22.6049C5.93874 22.6349 5.99865 22.6349 6.31507 22.618C6.99847 22.5786 6.99098 22.618 6.24205 22.9218C5.77772 23.1094 5.56615 23.2144 5.48002 23.2988C5.35083 23.4225 5.39577 23.475 5.62794 23.475C6.0361 23.475 6.94791 23.2331 7.43284 22.9968C7.80543 22.8149 7.98143 22.8487 8.07692 23.1187C8.09189 23.1637 8.1256 23.325 8.15181 23.4769C8.20236 23.7864 8.25104 23.912 8.33717 23.9645C8.44951 24.0339 8.50193 24.0058 8.57495 23.8426C8.63299 23.7113 8.64235 23.5032 8.60116 23.2519C8.56746 23.0343 8.56933 22.8149 8.60865 22.6837C8.66669 22.4924 8.85018 22.3048 9.14226 22.1323C9.35758 22.0067 9.34072 21.9898 8.98499 21.9748C8.70227 21.9617 8.63486 21.9392 8.57308 21.8379C8.5244 21.7572 8.5244 21.6016 8.57495 21.4403C8.59555 21.3709 8.72474 21.0465 8.86141 20.7202C9.23588 19.8275 9.33698 19.4937 9.35383 19.0755C9.36694 18.798 9.33136 18.603 9.22839 18.3742C9.09545 18.076 9.08235 17.8697 9.18158 17.6728C9.27145 17.4946 9.43996 17.3634 9.70208 17.2715C9.81629 17.2321 9.87246 17.2246 10.0616 17.2227C10.2507 17.2208 10.3068 17.2283 10.4173 17.264C10.7038 17.3615 10.9603 17.5078 11.522 17.8941C12.0855 18.2841 12.3551 18.4379 12.6472 18.5336C12.8569 18.603 12.9599 18.5973 13.267 18.4979C13.7781 18.3348 14.0608 18.3348 14.5476 18.4961C14.7461 18.5636 15.1318 18.7586 15.4014 18.933C15.598 19.0568 15.7478 19.143 15.7721 19.143C15.7777 19.143 15.7815 19.1318 15.7815 19.1168C15.7815 19.0774 15.6523 18.9105 15.2853 18.4773C15.1037 18.2598 14.9127 18.0235 14.8622 17.9522C14.5926 17.5659 14.4053 17.4159 14.0402 17.2883C13.8099 17.2096 13.692 17.1833 13.1696 17.1008C12.9131 17.0596 12.5255 16.9864 12.3083 16.9395C12.093 16.8927 11.6455 16.7933 11.316 16.722C10.378 16.5157 10.0709 16.4369 9.53732 16.2607C8.10875 15.79 7.17446 15.0811 6.36937 13.8527C6.0361 13.3445 5.80581 12.7707 5.70096 12.195C5.52121 11.2142 5.7384 10.3403 6.33941 9.61264C6.49482 9.42511 6.69141 9.2432 6.97225 9.02941C7.29804 8.77999 7.4759 8.60559 7.54518 8.46119C7.59761 8.35429 7.60322 8.32992 7.59573 8.20614C7.58637 8.01486 7.52833 7.90234 7.18757 7.42226C6.56971 6.55398 6.21022 5.97826 5.92189 5.39691C5.68036 4.90745 5.66351 4.85494 5.66164 4.55301C5.66164 4.33922 5.66913 4.27921 5.7047 4.15919C5.81517 3.80663 6.0024 3.50658 6.36188 3.10901C6.73634 2.69644 6.83745 2.52391 6.80562 2.357C6.8 2.31762 6.75694 2.24636 6.70264 2.1826C6.5903 2.04945 6.56035 1.95381 6.56035 1.72127C6.56035 1.50185 6.60341 1.37246 6.75507 1.13242C6.85617 0.971136 6.85992 0.959885 6.85804 0.84174C6.85617 0.693588 6.81311 0.596071 6.68579 0.461048C6.51728 0.279142 6.24954 0.136618 5.92938 0.052227C5.77772 0.012846 5.35271 -0.0134087 5.1842 0.00721931Z" fill="white"/>
    <path d="M6.93481 1.28244C6.90485 1.29744 6.85617 1.34245 6.82621 1.38371C6.62588 1.66688 6.71388 2.11696 7.0097 2.3195L7.10332 2.38138L7.3205 2.37013C7.59386 2.357 7.68373 2.37388 8.03573 2.5014C8.34091 2.61205 8.44576 2.62705 8.47946 2.56329C8.51504 2.49765 8.47946 2.41889 8.33155 2.23136C8.03385 1.86004 7.87096 1.72689 7.57139 1.60875C7.49276 1.57687 7.41974 1.52623 7.32238 1.43434C7.13702 1.25994 7.04902 1.22431 6.93481 1.28244Z" fill="white"/>
    <path d="M7.81291 7.80295C7.80729 7.81795 7.81104 7.86296 7.82227 7.90234C7.89716 8.18927 7.88406 8.39555 7.77546 8.61872C7.69121 8.79312 7.50585 8.98253 7.04714 9.36697C6.57719 9.76079 6.39557 9.95957 6.22706 10.2728C6.02673 10.6441 5.90316 11.2873 5.94809 11.7224C6.03609 12.5531 6.41617 13.3352 7.18756 14.2709C8.02074 15.2836 8.86328 15.8425 10.0335 16.1613C10.4042 16.2625 10.612 16.2738 10.7899 16.2025C10.8648 16.1725 10.9135 16.0956 10.9135 16.0056C10.9135 15.9812 10.934 15.9212 10.9603 15.8687C11.0258 15.7375 11.1344 15.6718 11.4134 15.5912C11.6867 15.5143 11.7597 15.4805 11.8215 15.4074C11.8702 15.3493 11.9058 15.2461 11.9058 15.1617C11.9058 15.1336 11.8852 15.0042 11.859 14.8748C11.7859 14.5072 11.7916 14.4735 11.9563 14.346C12.1716 14.1753 12.2522 13.9671 12.1773 13.7852C12.151 13.7215 11.7466 13.2939 11.7298 13.3127C11.726 13.3164 11.7354 13.3877 11.7504 13.4702C11.8197 13.8546 11.7092 14.1791 11.3778 14.5766C11.0089 15.0173 10.7318 15.2574 10.4173 15.4111C10.1177 15.5574 9.82939 15.6062 9.52607 15.563C9.17408 15.5124 9.05051 15.3793 9.15161 15.1561C9.19655 15.0586 9.39127 14.8504 9.50735 14.7754C9.5916 14.7191 9.65901 14.7004 9.65901 14.7304C9.65901 14.751 9.60658 14.8242 9.52607 14.9254C9.41561 15.0586 9.40437 15.0905 9.44931 15.1355C9.58599 15.2724 10.202 15.1111 10.5877 14.8392C10.7393 14.7304 10.9809 14.4716 11.1082 14.2784C11.3797 13.8715 11.477 13.4814 11.3797 13.1926C11.3104 12.9882 10.8872 11.9268 10.6701 11.4148C9.87619 9.547 9.16846 8.44619 8.53188 8.08987C8.38022 8.00548 7.9421 7.80295 7.87657 7.78795C7.83912 7.77857 7.82227 7.78232 7.81291 7.80295Z" fill="white"/>
    <path d="M12.299 14.0422C12.2466 14.0947 12.2522 14.1247 12.3346 14.2578C12.4188 14.3891 12.4675 14.4979 12.4675 14.5504C12.4675 14.6048 12.4038 14.5954 12.2634 14.5166C12.1155 14.436 12.0556 14.4397 11.9994 14.5354C11.9507 14.6141 11.9526 14.7192 12.0013 14.8579C12.1136 15.1749 12.035 15.5649 11.8421 15.6456C11.8103 15.6587 11.7092 15.6887 11.6175 15.7093C11.419 15.7562 11.2467 15.8443 11.1793 15.9325C11.1194 16.0113 11.1138 16.1369 11.1681 16.2457C11.2505 16.4163 11.741 16.6076 12.2765 16.677C12.4712 16.7032 12.5255 16.7032 12.827 16.6751C13.2164 16.6414 13.3063 16.6489 13.5534 16.7501C13.7556 16.8326 13.8324 16.8458 13.9185 16.8176C14.0009 16.7914 14.1114 16.6957 14.1357 16.6357C14.1582 16.5776 14.117 16.4801 14.0327 16.3863C13.956 16.3001 13.9373 16.2513 13.9653 16.1988C13.9953 16.1406 14.0721 16.12 14.1994 16.1313C14.3192 16.1444 14.3417 16.1369 14.3754 16.0731C14.4353 15.9587 14.3698 15.7975 14.19 15.6174C14.0346 15.4599 13.2782 14.9686 13.2445 15.0023C13.2389 15.008 13.2819 15.0773 13.3419 15.1599C13.574 15.4843 13.6658 15.6737 13.6658 15.8293C13.6658 15.9887 13.5328 16.1894 13.355 16.3038C13.1808 16.4163 13.0348 16.452 12.7577 16.4501C12.4694 16.4501 12.3214 16.4182 12.1024 16.3113C11.9264 16.2269 11.8365 16.1444 11.8197 16.0563C11.8047 15.9775 11.8534 15.8894 11.9414 15.8293C12.0893 15.7281 12.2278 15.76 12.3065 15.9119C12.3851 16.0675 12.4768 16.1238 12.6454 16.1238C12.8232 16.1238 13.0816 16.015 13.2089 15.8875C13.3625 15.7356 13.3419 15.5687 13.1209 15.1298C12.8869 14.6648 12.6379 14.2691 12.46 14.074C12.3851 13.9953 12.3533 13.9878 12.299 14.0422Z" fill="white"/>
</svg>
