<svg width="177" height="22" viewBox="0 0 177 22" fill="none" xmlns="http://www.w3.org/2000/svg">
<path d="M3.87695 16.6348H0V2.57227H3.87695V8.71484H9.01367V2.57227H12.8906V16.6348H9.01367V10.502H3.87695V16.6348Z" fill="white"/>
<path d="M27.002 16.6348H23.7012V15.2871C23.3105 15.821 22.8385 16.2181 22.2852 16.4785C21.7383 16.7324 21.1361 16.8594 20.4785 16.8594C19.6191 16.8594 18.8509 16.7064 18.1738 16.4004C17.4967 16.0944 16.9238 15.6777 16.4551 15.1504C15.9863 14.6165 15.6283 13.9915 15.3809 13.2754C15.1335 12.5592 15.0098 11.791 15.0098 10.9707C15.0098 10.1504 15.1335 9.38216 15.3809 8.66602C15.6283 7.94987 15.9863 7.32812 16.4551 6.80078C16.9238 6.26693 17.4967 5.84701 18.1738 5.54102C18.8509 5.23503 19.6191 5.08203 20.4785 5.08203C20.9147 5.08203 21.3281 5.14714 21.7188 5.27734C22.1159 5.40755 22.4772 5.5931 22.8027 5.83398C23.1348 6.06836 23.4245 6.35482 23.6719 6.69336C23.9258 7.02539 24.1243 7.39648 24.2676 7.80664L25.7324 5.35547H27.002V16.6348ZM23.6816 10.9707C23.6816 10.6777 23.6654 10.3685 23.6328 10.043C23.6068 9.71745 23.5579 9.39518 23.4863 9.07617C23.4147 8.75716 23.3138 8.45443 23.1836 8.16797C23.0599 7.875 22.8971 7.61784 22.6953 7.39648C22.5 7.16862 22.2624 6.98958 21.9824 6.85938C21.7025 6.72917 21.377 6.66406 21.0059 6.66406C20.6348 6.66406 20.3125 6.73242 20.0391 6.86914C19.7656 6.99935 19.5312 7.17839 19.3359 7.40625C19.1406 7.6276 18.9779 7.88477 18.8477 8.17773C18.724 8.4707 18.6263 8.77669 18.5547 9.0957C18.4831 9.41471 18.431 9.73698 18.3984 10.0625C18.3724 10.3815 18.3594 10.6842 18.3594 10.9707C18.3594 11.2572 18.3724 11.5632 18.3984 11.8887C18.431 12.2142 18.4831 12.5365 18.5547 12.8555C18.6263 13.1745 18.724 13.4805 18.8477 13.7734C18.9779 14.0664 19.1406 14.3268 19.3359 14.5547C19.5312 14.776 19.7656 14.9551 20.0391 15.0918C20.3125 15.222 20.6348 15.2871 21.0059 15.2871C21.3444 15.2871 21.6439 15.2188 21.9043 15.082C22.1712 14.9388 22.4023 14.75 22.5977 14.5156C22.7995 14.2812 22.9688 14.0143 23.1055 13.7148C23.2422 13.4154 23.3529 13.1061 23.4375 12.7871C23.5221 12.4681 23.584 12.1523 23.623 11.8398C23.6621 11.5208 23.6816 11.2311 23.6816 10.9707Z" fill="white"/>
<path d="M38.7012 16.6348H29.1504V15.3262L35.0586 6.66406H29.1504V5.35547H38.7012V6.66406L32.793 15.3262H38.7012V16.6348Z" fill="white"/>
<path d="M43.1836 11.2832C43.5872 11.3743 43.9909 11.446 44.3945 11.498C44.7982 11.5501 45.2051 11.5762 45.6152 11.5762C46.0449 11.5762 46.4421 11.5371 46.8066 11.459C47.1777 11.3743 47.4967 11.2376 47.7637 11.0488C48.0371 10.8535 48.252 10.5964 48.4082 10.2773C48.5645 9.95833 48.6426 9.5612 48.6426 9.08594C48.6426 8.70182 48.5905 8.35026 48.4863 8.03125C48.3822 7.71224 48.2259 7.4388 48.0176 7.21094C47.8158 6.98307 47.5651 6.80729 47.2656 6.68359C46.9661 6.55339 46.6178 6.48828 46.2207 6.48828C45.8496 6.48828 45.5143 6.55664 45.2148 6.69336C44.9219 6.83008 44.6615 7.01562 44.4336 7.25C44.2122 7.47786 44.0202 7.74479 43.8574 8.05078C43.7012 8.35677 43.571 8.67578 43.4668 9.00781C43.3626 9.33984 43.2878 9.67513 43.2422 10.0137C43.1966 10.3522 43.1738 10.6712 43.1738 10.9707C43.1738 11.0228 43.1738 11.0749 43.1738 11.127C43.1738 11.179 43.1771 11.2311 43.1836 11.2832ZM51.3184 9.05664C51.3184 9.51888 51.2435 9.93229 51.0938 10.2969C50.944 10.6549 50.7389 10.9707 50.4785 11.2441C50.2246 11.5176 49.9284 11.7487 49.5898 11.9375C49.2513 12.1263 48.89 12.2826 48.5059 12.4062C48.1217 12.5234 47.7246 12.6081 47.3145 12.6602C46.9108 12.7122 46.5169 12.7383 46.1328 12.7383C45.6445 12.7383 45.1628 12.7057 44.6875 12.6406C44.2122 12.569 43.7435 12.4583 43.2812 12.3086C43.3529 12.7383 43.4668 13.1484 43.623 13.5391C43.7793 13.9232 43.9876 14.2617 44.248 14.5547C44.5085 14.8411 44.8275 15.069 45.2051 15.2383C45.5892 15.4076 46.0417 15.4922 46.5625 15.4922C46.9076 15.4922 47.2363 15.4401 47.5488 15.3359C47.8613 15.2318 48.1478 15.0853 48.4082 14.8965C48.6686 14.7077 48.8965 14.4831 49.0918 14.2227C49.2936 13.9622 49.4564 13.6725 49.5801 13.3535L51.0059 13.8809C50.791 14.3952 50.4948 14.8411 50.1172 15.2188C49.7461 15.5898 49.3229 15.8991 48.8477 16.1465C48.3789 16.3874 47.8776 16.5664 47.3438 16.6836C46.8164 16.8008 46.2923 16.8594 45.7715 16.8594C44.9121 16.8594 44.1178 16.7161 43.3887 16.4297C42.6595 16.1367 42.0312 15.7298 41.5039 15.209C40.9766 14.6882 40.5632 14.0664 40.2637 13.3438C39.9642 12.6211 39.8145 11.8301 39.8145 10.9707C39.8145 10.1113 39.9642 9.32031 40.2637 8.59766C40.5632 7.875 40.9766 7.25326 41.5039 6.73242C42.0312 6.21159 42.6595 5.80794 43.3887 5.52148C44.1178 5.22852 44.9121 5.08203 45.7715 5.08203C46.1882 5.08203 46.6146 5.11133 47.0508 5.16992C47.487 5.22852 47.9102 5.32292 48.3203 5.45312C48.7305 5.57682 49.1178 5.73958 49.4824 5.94141C49.847 6.14323 50.1628 6.39388 50.4297 6.69336C50.7031 6.98633 50.918 7.32812 51.0742 7.71875C51.237 8.10938 51.3184 8.55534 51.3184 9.05664Z" fill="white"/>
<path d="M56.6797 16.6348H53.3789V0.160156H54.6484L56.6797 3.58789V16.6348Z" fill="white"/>
<path d="M70.791 15.2773C70.791 16.1758 70.6576 17.0221 70.3906 17.8164C70.1237 18.6107 69.7363 19.304 69.2285 19.8965C68.7207 20.4954 68.0957 20.9674 67.3535 21.3125C66.6178 21.6641 65.778 21.8398 64.834 21.8398C64.3131 21.8398 63.7858 21.7812 63.252 21.6641C62.7246 21.5469 62.2233 21.3646 61.748 21.1172C61.2793 20.8763 60.8561 20.5671 60.4785 20.1895C60.1074 19.8184 59.8145 19.3789 59.5996 18.8711L61.0254 18.334C61.1491 18.653 61.3086 18.946 61.5039 19.2129C61.7057 19.4798 61.9368 19.7077 62.1973 19.8965C62.4577 20.0918 62.7441 20.2415 63.0566 20.3457C63.3691 20.4564 63.6979 20.5117 64.043 20.5117C64.694 20.5117 65.2376 20.3783 65.6738 20.1113C66.1165 19.8444 66.4714 19.4961 66.7383 19.0664C67.0052 18.6367 67.1973 18.1484 67.3145 17.6016C67.4316 17.0612 67.4902 16.5111 67.4902 15.9512V15.2871C67.0996 15.821 66.6276 16.2181 66.0742 16.4785C65.5273 16.7324 64.9251 16.8594 64.2676 16.8594C63.4082 16.8594 62.64 16.7064 61.9629 16.4004C61.2858 16.0944 60.7129 15.6777 60.2441 15.1504C59.7754 14.6165 59.4173 13.9915 59.1699 13.2754C58.9225 12.5592 58.7988 11.791 58.7988 10.9707C58.7988 10.1504 58.9225 9.38216 59.1699 8.66602C59.4173 7.94987 59.7754 7.32812 60.2441 6.80078C60.7129 6.26693 61.2858 5.84701 61.9629 5.54102C62.64 5.23503 63.4082 5.08203 64.2676 5.08203C64.7038 5.08203 65.1172 5.14714 65.5078 5.27734C65.9049 5.40755 66.2663 5.5931 66.5918 5.83398C66.9238 6.06836 67.2135 6.35482 67.4609 6.69336C67.7148 7.02539 67.9134 7.39648 68.0566 7.80664L69.5215 5.35547H70.791V15.2773ZM67.4707 10.9707C67.4707 10.6777 67.4544 10.3685 67.4219 10.043C67.3958 9.71745 67.347 9.39518 67.2754 9.07617C67.2038 8.75716 67.1029 8.45443 66.9727 8.16797C66.849 7.875 66.6862 7.61784 66.4844 7.39648C66.2891 7.16862 66.0514 6.98958 65.7715 6.85938C65.4915 6.72917 65.166 6.66406 64.7949 6.66406C64.4238 6.66406 64.1016 6.73242 63.8281 6.86914C63.5547 6.99935 63.3203 7.17839 63.125 7.40625C62.9297 7.6276 62.7669 7.88477 62.6367 8.17773C62.513 8.4707 62.4154 8.77669 62.3438 9.0957C62.2721 9.41471 62.2201 9.73698 62.1875 10.0625C62.1615 10.3815 62.1484 10.6842 62.1484 10.9707C62.1484 11.2572 62.1615 11.5632 62.1875 11.8887C62.2201 12.2142 62.2721 12.5365 62.3438 12.8555C62.4154 13.1745 62.513 13.4805 62.6367 13.7734C62.7669 14.0664 62.9297 14.3268 63.125 14.5547C63.3203 14.776 63.5547 14.9551 63.8281 15.0918C64.1016 15.222 64.4238 15.2871 64.7949 15.2871C65.1335 15.2871 65.4329 15.2188 65.6934 15.082C65.9603 14.9388 66.1914 14.75 66.3867 14.5156C66.5885 14.2812 66.7578 14.0143 66.8945 13.7148C67.0312 13.4154 67.1419 13.1061 67.2266 12.7871C67.3112 12.4681 67.373 12.1523 67.4121 11.8398C67.4512 11.5208 67.4707 11.2311 67.4707 10.9707Z" fill="white"/>
<path d="M83.1445 6.35156L81.2891 9.42773C81.2109 9.16732 81.11 8.87435 80.9863 8.54883C80.8626 8.22331 80.7096 7.92057 80.5273 7.64062C80.3451 7.35417 80.127 7.11654 79.873 6.92773C79.6191 6.73242 79.3262 6.63477 78.9941 6.63477C78.6881 6.63477 78.4212 6.71289 78.1934 6.86914C77.972 7.02539 77.7832 7.23047 77.627 7.48438C77.4707 7.73177 77.3405 8.01497 77.2363 8.33398C77.1387 8.64648 77.0605 8.9655 77.002 9.29102C76.9499 9.61003 76.9141 9.91927 76.8945 10.2188C76.875 10.5117 76.8652 10.7656 76.8652 10.9805V16.6348H73.5547V5.35547H74.8242L76.1621 7.98242C76.3444 7.55924 76.5527 7.17188 76.7871 6.82031C77.0215 6.46224 77.2917 6.15625 77.5977 5.90234C77.9036 5.64193 78.2487 5.4401 78.6328 5.29688C79.0234 5.15365 79.4629 5.08203 79.9512 5.08203C80.2051 5.08203 80.4883 5.10482 80.8008 5.15039C81.1133 5.18945 81.4193 5.26107 81.7188 5.36523C82.0182 5.46289 82.2949 5.5931 82.5488 5.75586C82.8027 5.91862 83.0013 6.11719 83.1445 6.35156Z" fill="white"/>
<path d="M96.1523 10.9707C96.1523 11.5566 96.0742 12.1068 95.918 12.6211C95.7617 13.1354 95.5436 13.6107 95.2637 14.0469C94.9902 14.4831 94.6582 14.877 94.2676 15.2285C93.877 15.5736 93.4473 15.8665 92.9785 16.1074C92.5163 16.3483 92.0182 16.5339 91.4844 16.6641C90.957 16.7943 90.4134 16.8594 89.8535 16.8594C89.2936 16.8594 88.75 16.7943 88.2227 16.6641C87.6953 16.5339 87.1973 16.3483 86.7285 16.1074C86.2663 15.8665 85.8398 15.5736 85.4492 15.2285C85.0586 14.877 84.7233 14.4831 84.4434 14.0469C84.1699 13.6107 83.9551 13.1354 83.7988 12.6211C83.6426 12.1003 83.5645 11.5501 83.5645 10.9707C83.5645 10.3913 83.6426 9.8444 83.7988 9.33008C83.9551 8.80925 84.1699 8.33073 84.4434 7.89453C84.7233 7.45833 85.0586 7.06771 85.4492 6.72266C85.8398 6.37109 86.2663 6.07487 86.7285 5.83398C87.1973 5.5931 87.6953 5.40755 88.2227 5.27734C88.75 5.14714 89.2936 5.08203 89.8535 5.08203C90.4134 5.08203 90.957 5.14714 91.4844 5.27734C92.0182 5.40755 92.5163 5.5931 92.9785 5.83398C93.4473 6.07487 93.877 6.37109 94.2676 6.72266C94.6582 7.06771 94.9902 7.45833 95.2637 7.89453C95.5436 8.33073 95.7617 8.80925 95.918 9.33008C96.0742 9.8444 96.1523 10.3913 96.1523 10.9707ZM92.793 10.9707C92.793 10.6582 92.7734 10.3294 92.7344 9.98438C92.7018 9.63281 92.6432 9.29102 92.5586 8.95898C92.474 8.62044 92.3568 8.29818 92.207 7.99219C92.0638 7.67969 91.8848 7.40951 91.6699 7.18164C91.4551 6.94727 91.1979 6.76172 90.8984 6.625C90.599 6.48177 90.2506 6.41016 89.8535 6.41016C89.4759 6.41016 89.1406 6.48177 88.8477 6.625C88.5547 6.76823 88.2975 6.96029 88.0762 7.20117C87.8613 7.43555 87.679 7.70898 87.5293 8.02148C87.3861 8.33398 87.2689 8.6595 87.1777 8.99805C87.0866 9.33008 87.0215 9.66862 86.9824 10.0137C86.9434 10.3522 86.9238 10.6712 86.9238 10.9707C86.9238 11.2702 86.9434 11.5924 86.9824 11.9375C87.0215 12.276 87.0866 12.6146 87.1777 12.9531C87.2689 13.2917 87.3861 13.6172 87.5293 13.9297C87.679 14.2357 87.8613 14.5091 88.0762 14.75C88.2975 14.9844 88.5547 15.1732 88.8477 15.3164C89.1406 15.4596 89.4759 15.5312 89.8535 15.5312C90.2441 15.5312 90.5892 15.4629 90.8887 15.3262C91.1881 15.1829 91.4453 14.9941 91.6602 14.7598C91.8815 14.5254 92.0638 14.2552 92.207 13.9492C92.3503 13.6432 92.4642 13.321 92.5488 12.9824C92.64 12.6439 92.7018 12.3021 92.7344 11.957C92.7734 11.612 92.793 11.2832 92.793 10.9707Z" fill="white"/>
<path d="M97.666 11.8105C97.666 11.2962 97.7083 10.7624 97.793 10.209C97.8841 9.6556 98.0111 9.10221 98.1738 8.54883C98.3431 7.99544 98.5449 7.44857 98.7793 6.9082C99.0137 6.36784 99.2773 5.85026 99.5703 5.35547H101.982C101.82 5.84375 101.673 6.35482 101.543 6.88867C101.419 7.41602 101.312 7.94661 101.221 8.48047C101.136 9.00781 101.068 9.52539 101.016 10.0332C100.97 10.541 100.947 11.013 100.947 11.4492C100.947 11.7031 100.957 11.9766 100.977 12.2695C101.003 12.556 101.045 12.8457 101.104 13.1387C101.162 13.4251 101.243 13.7018 101.348 13.9688C101.458 14.2357 101.598 14.4733 101.768 14.6816C101.937 14.8835 102.142 15.0462 102.383 15.1699C102.63 15.2871 102.92 15.3457 103.252 15.3457C103.577 15.3457 103.867 15.2741 104.121 15.1309C104.382 14.9811 104.609 14.7891 104.805 14.5547C105 14.3138 105.166 14.0404 105.303 13.7344C105.439 13.4284 105.55 13.1159 105.635 12.7969C105.726 12.4714 105.791 12.1556 105.83 11.8496C105.876 11.5371 105.898 11.2572 105.898 11.0098V5.35547H109.199V16.6348H107.93L106.416 14.0078C106.227 14.444 105.996 14.8411 105.723 15.1992C105.456 15.5508 105.15 15.8535 104.805 16.1074C104.46 16.3613 104.076 16.5566 103.652 16.6934C103.236 16.8301 102.783 16.8984 102.295 16.8984C101.514 16.8984 100.833 16.7715 100.254 16.5176C99.6745 16.2637 99.1927 15.9121 98.8086 15.4629C98.4245 15.0137 98.138 14.4798 97.9492 13.8613C97.7604 13.2363 97.666 12.5527 97.666 11.8105Z" fill="white"/>
<path d="M121.66 13.0312C121.66 13.526 121.589 13.9655 121.445 14.3496C121.302 14.7337 121.107 15.069 120.859 15.3555C120.612 15.6354 120.319 15.873 119.98 16.0684C119.642 16.2572 119.277 16.4102 118.887 16.5273C118.503 16.6445 118.099 16.7292 117.676 16.7812C117.253 16.8333 116.833 16.8594 116.416 16.8594C115.856 16.8594 115.361 16.8236 114.932 16.752C114.502 16.6803 114.092 16.5664 113.701 16.4102C113.311 16.2474 112.92 16.0391 112.529 15.7852C112.145 15.5312 111.715 15.222 111.24 14.8574L113.164 13.2852C113.34 13.6172 113.571 13.9199 113.857 14.1934C114.15 14.4603 114.453 14.6914 114.766 14.8867C115.078 15.082 115.381 15.2318 115.674 15.3359C115.967 15.4401 116.204 15.4922 116.387 15.4922C116.536 15.4922 116.706 15.4889 116.895 15.4824C117.083 15.4694 117.275 15.4499 117.471 15.4238C117.666 15.3913 117.858 15.3457 118.047 15.2871C118.236 15.2285 118.402 15.1504 118.545 15.0527C118.695 14.9486 118.812 14.8216 118.896 14.6719C118.988 14.5156 119.033 14.3301 119.033 14.1152C119.033 13.8939 118.975 13.7018 118.857 13.5391C118.747 13.3698 118.6 13.2233 118.418 13.0996C118.236 12.9759 118.027 12.8717 117.793 12.7871C117.559 12.7025 117.321 12.6276 117.08 12.5625C116.846 12.4974 116.618 12.4421 116.396 12.3965C116.175 12.3444 115.983 12.2956 115.82 12.25C115.521 12.1654 115.205 12.0807 114.873 11.9961C114.541 11.9049 114.212 11.804 113.887 11.6934C113.561 11.5762 113.249 11.4395 112.949 11.2832C112.656 11.127 112.396 10.9414 112.168 10.7266C111.947 10.5052 111.768 10.248 111.631 9.95508C111.501 9.6556 111.436 9.30729 111.436 8.91016C111.436 8.18099 111.579 7.57227 111.865 7.08398C112.158 6.58919 112.542 6.19531 113.018 5.90234C113.493 5.60286 114.033 5.39128 114.639 5.26758C115.244 5.14388 115.859 5.08203 116.484 5.08203C116.914 5.08203 117.367 5.1276 117.842 5.21875C118.317 5.30339 118.779 5.43359 119.229 5.60938C119.678 5.77865 120.098 5.98698 120.488 6.23438C120.879 6.48177 121.204 6.76497 121.465 7.08398L119.541 8.66602C119.398 8.27539 119.209 7.9401 118.975 7.66016C118.747 7.38021 118.496 7.15234 118.223 6.97656C117.956 6.79427 117.679 6.66081 117.393 6.57617C117.113 6.49154 116.852 6.44922 116.611 6.44922C116.377 6.44922 116.113 6.45898 115.82 6.47852C115.527 6.49805 115.251 6.55339 114.99 6.64453C114.736 6.73568 114.518 6.87565 114.336 7.06445C114.16 7.24674 114.072 7.50065 114.072 7.82617C114.072 8.06055 114.124 8.26237 114.229 8.43164C114.339 8.5944 114.482 8.73763 114.658 8.86133C114.834 8.97852 115.033 9.07943 115.254 9.16406C115.482 9.24219 115.713 9.3138 115.947 9.37891C116.182 9.4375 116.41 9.48958 116.631 9.53516C116.852 9.58073 117.051 9.62956 117.227 9.68164C117.526 9.76628 117.842 9.85417 118.174 9.94531C118.512 10.0299 118.844 10.1309 119.17 10.248C119.495 10.3587 119.808 10.4922 120.107 10.6484C120.413 10.7982 120.68 10.9837 120.908 11.2051C121.136 11.4264 121.318 11.6868 121.455 11.9863C121.592 12.2793 121.66 12.6276 121.66 13.0312Z" fill="white"/>
<path d="M126.465 11.2832C126.868 11.3743 127.272 11.446 127.676 11.498C128.079 11.5501 128.486 11.5762 128.896 11.5762C129.326 11.5762 129.723 11.5371 130.088 11.459C130.459 11.3743 130.778 11.2376 131.045 11.0488C131.318 10.8535 131.533 10.5964 131.689 10.2773C131.846 9.95833 131.924 9.5612 131.924 9.08594C131.924 8.70182 131.872 8.35026 131.768 8.03125C131.663 7.71224 131.507 7.4388 131.299 7.21094C131.097 6.98307 130.846 6.80729 130.547 6.68359C130.247 6.55339 129.899 6.48828 129.502 6.48828C129.131 6.48828 128.796 6.55664 128.496 6.69336C128.203 6.83008 127.943 7.01562 127.715 7.25C127.493 7.47786 127.301 7.74479 127.139 8.05078C126.982 8.35677 126.852 8.67578 126.748 9.00781C126.644 9.33984 126.569 9.67513 126.523 10.0137C126.478 10.3522 126.455 10.6712 126.455 10.9707C126.455 11.0228 126.455 11.0749 126.455 11.127C126.455 11.179 126.458 11.2311 126.465 11.2832ZM134.6 9.05664C134.6 9.51888 134.525 9.93229 134.375 10.2969C134.225 10.6549 134.02 10.9707 133.76 11.2441C133.506 11.5176 133.21 11.7487 132.871 11.9375C132.533 12.1263 132.171 12.2826 131.787 12.4062C131.403 12.5234 131.006 12.6081 130.596 12.6602C130.192 12.7122 129.798 12.7383 129.414 12.7383C128.926 12.7383 128.444 12.7057 127.969 12.6406C127.493 12.569 127.025 12.4583 126.562 12.3086C126.634 12.7383 126.748 13.1484 126.904 13.5391C127.061 13.9232 127.269 14.2617 127.529 14.5547C127.79 14.8411 128.109 15.069 128.486 15.2383C128.87 15.4076 129.323 15.4922 129.844 15.4922C130.189 15.4922 130.518 15.4401 130.83 15.3359C131.143 15.2318 131.429 15.0853 131.689 14.8965C131.95 14.7077 132.178 14.4831 132.373 14.2227C132.575 13.9622 132.738 13.6725 132.861 13.3535L134.287 13.8809C134.072 14.3952 133.776 14.8411 133.398 15.2188C133.027 15.5898 132.604 15.8991 132.129 16.1465C131.66 16.3874 131.159 16.5664 130.625 16.6836C130.098 16.8008 129.574 16.8594 129.053 16.8594C128.193 16.8594 127.399 16.7161 126.67 16.4297C125.941 16.1367 125.312 15.7298 124.785 15.209C124.258 14.6882 123.844 14.0664 123.545 13.3438C123.245 12.6211 123.096 11.8301 123.096 10.9707C123.096 10.1113 123.245 9.32031 123.545 8.59766C123.844 7.875 124.258 7.25326 124.785 6.73242C125.312 6.21159 125.941 5.80794 126.67 5.52148C127.399 5.22852 128.193 5.08203 129.053 5.08203C129.469 5.08203 129.896 5.11133 130.332 5.16992C130.768 5.22852 131.191 5.32292 131.602 5.45312C132.012 5.57682 132.399 5.73958 132.764 5.94141C133.128 6.14323 133.444 6.39388 133.711 6.69336C133.984 6.98633 134.199 7.32812 134.355 7.71875C134.518 8.10938 134.6 8.55534 134.6 9.05664Z" fill="white"/>
<path d="M155.928 9.90625V10.0918C155.915 10.6387 155.856 11.2051 155.752 11.791C155.654 12.377 155.514 12.9629 155.332 13.5488C155.15 14.1348 154.932 14.7142 154.678 15.2871C154.424 15.86 154.137 16.4069 153.818 16.9277C153.506 17.4551 153.167 17.9466 152.803 18.4023C152.438 18.8646 152.054 19.2715 151.65 19.623L150.195 18.7832C150.423 18.3991 150.628 17.9792 150.811 17.5234C150.999 17.0742 151.169 16.6022 151.318 16.1074C151.468 15.6126 151.595 15.1048 151.699 14.584C151.81 14.0632 151.901 13.5456 151.973 13.0312C152.044 12.5169 152.096 12.0124 152.129 11.5176C152.168 11.0163 152.188 10.541 152.188 10.0918C152.188 9.74023 152.184 9.3431 152.178 8.90039C152.178 8.45117 152.152 7.99544 152.1 7.5332C152.054 7.07096 151.976 6.62174 151.865 6.18555C151.755 5.74284 151.589 5.34896 151.367 5.00391C151.152 4.65885 150.872 4.38216 150.527 4.17383C150.189 3.96549 149.766 3.86133 149.258 3.86133C148.809 3.86133 148.421 3.93945 148.096 4.0957C147.777 4.24544 147.503 4.45052 147.275 4.71094C147.054 4.96484 146.875 5.26107 146.738 5.59961C146.608 5.93815 146.504 6.29622 146.426 6.67383C146.354 7.04492 146.305 7.42253 146.279 7.80664C146.26 8.18425 146.25 8.54232 146.25 8.88086V11.6055H150.459V13.2168H146.25V16.6348H142.373V9.48633C142.373 8.46419 142.536 7.51367 142.861 6.63477C143.187 5.75586 143.646 4.99414 144.238 4.34961C144.837 3.69857 145.553 3.19076 146.387 2.82617C147.227 2.45508 148.161 2.26953 149.189 2.26953C149.886 2.26953 150.537 2.37044 151.143 2.57227C151.755 2.76758 152.311 3.04102 152.812 3.39258C153.314 3.73763 153.76 4.15104 154.15 4.63281C154.548 5.10807 154.876 5.62891 155.137 6.19531C155.404 6.76172 155.605 7.36068 155.742 7.99219C155.879 8.6237 155.941 9.26172 155.928 9.90625Z" fill="white"/>
<path d="M167.676 6.35156L165.82 9.42773C165.742 9.16732 165.641 8.87435 165.518 8.54883C165.394 8.22331 165.241 7.92057 165.059 7.64062C164.876 7.35417 164.658 7.11654 164.404 6.92773C164.15 6.73242 163.857 6.63477 163.525 6.63477C163.219 6.63477 162.952 6.71289 162.725 6.86914C162.503 7.02539 162.314 7.23047 162.158 7.48438C162.002 7.73177 161.872 8.01497 161.768 8.33398C161.67 8.64648 161.592 8.9655 161.533 9.29102C161.481 9.61003 161.445 9.91927 161.426 10.2188C161.406 10.5117 161.396 10.7656 161.396 10.9805V16.6348H158.086V5.35547H159.355L160.693 7.98242C160.876 7.55924 161.084 7.17188 161.318 6.82031C161.553 6.46224 161.823 6.15625 162.129 5.90234C162.435 5.64193 162.78 5.4401 163.164 5.29688C163.555 5.15365 163.994 5.08203 164.482 5.08203C164.736 5.08203 165.02 5.10482 165.332 5.15039C165.645 5.18945 165.951 5.26107 166.25 5.36523C166.549 5.46289 166.826 5.5931 167.08 5.75586C167.334 5.91862 167.533 6.11719 167.676 6.35156Z" fill="white"/>
<path d="M173.311 16.6348H170V6.66406H167.949V5.35547H170V1.20508H173.311V5.35547H176.729V6.66406H173.311V16.6348Z" fill="white"/>
</svg>
