<svg width="20" height="20" viewBox="0 0 20 20" fill="none" xmlns="http://www.w3.org/2000/svg">
<circle cx="10" cy="10" r="10" fill="white"/>
<path d="M7.2 3.33334H12.8C14.9333 3.33334 16.6667 5.06668 16.6667 7.20001V12.8C16.6667 13.8255 16.2593 14.809 15.5341 15.5342C14.809 16.2593 13.8255 16.6667 12.8 16.6667H7.2C5.06666 16.6667 3.33333 14.9333 3.33333 12.8V7.20001C3.33333 6.17451 3.74071 5.191 4.46585 4.46586C5.19099 3.74072 6.17449 3.33334 7.2 3.33334ZM7.06666 4.66668C6.43014 4.66668 5.81969 4.91953 5.36961 5.36962C4.91952 5.81971 4.66666 6.43016 4.66666 7.06668V12.9333C4.66666 14.26 5.74 15.3333 7.06666 15.3333H12.9333C13.5698 15.3333 14.1803 15.0805 14.6304 14.6304C15.0805 14.1803 15.3333 13.5699 15.3333 12.9333V7.06668C15.3333 5.74001 14.26 4.66668 12.9333 4.66668H7.06666ZM13.5 5.66668C13.721 5.66668 13.933 5.75447 14.0893 5.91075C14.2455 6.06703 14.3333 6.279 14.3333 6.50001C14.3333 6.72102 14.2455 6.93299 14.0893 7.08927C13.933 7.24555 13.721 7.33334 13.5 7.33334C13.279 7.33334 13.067 7.24555 12.9107 7.08927C12.7545 6.93299 12.6667 6.72102 12.6667 6.50001C12.6667 6.279 12.7545 6.06703 12.9107 5.91075C13.067 5.75447 13.279 5.66668 13.5 5.66668ZM10 6.66668C10.884 6.66668 11.7319 7.01787 12.357 7.64299C12.9821 8.26811 13.3333 9.11596 13.3333 10C13.3333 10.8841 12.9821 11.7319 12.357 12.357C11.7319 12.9822 10.884 13.3333 10 13.3333C9.11594 13.3333 8.26809 12.9822 7.64297 12.357C7.01785 11.7319 6.66666 10.8841 6.66666 10C6.66666 9.11596 7.01785 8.26811 7.64297 7.64299C8.26809 7.01787 9.11594 6.66668 10 6.66668ZM10 8.00001C9.46956 8.00001 8.96085 8.21072 8.58578 8.5858C8.21071 8.96087 8 9.46958 8 10C8 10.5304 8.21071 11.0392 8.58578 11.4142C8.96085 11.7893 9.46956 12 10 12C10.5304 12 11.0391 11.7893 11.4142 11.4142C11.7893 11.0392 12 10.5304 12 10C12 9.46958 11.7893 8.96087 11.4142 8.5858C11.0391 8.21072 10.5304 8.00001 10 8.00001Z" fill="#FF7042"/>
</svg>
