<svg width="20" height="20" viewBox="0 0 20 20" fill="none" xmlns="http://www.w3.org/2000/svg">
<circle cx="10" cy="10" r="10" fill="white"/>
<path d="M16.1017 6.50001C15.6525 6.70418 15.1683 6.83834 14.6667 6.90251C15.18 6.59334 15.5767 6.10334 15.7633 5.51418C15.2792 5.80584 14.7425 6.01001 14.1767 6.12668C13.7158 5.62501 13.0683 5.33334 12.3333 5.33334C10.9625 5.33334 9.8425 6.45334 9.8425 7.83584C9.8425 8.03418 9.86583 8.22668 9.90666 8.40751C7.83 8.30251 5.98083 7.30501 4.75 5.79418C4.53416 6.16168 4.41166 6.59334 4.41166 7.04834C4.41166 7.91751 4.84916 8.68751 5.52583 9.12501C5.11166 9.12501 4.72666 9.00834 4.38833 8.83334C4.38833 8.83334 4.38833 8.83334 4.38833 8.85084C4.38833 10.0642 5.25166 11.0792 6.395 11.3067C6.185 11.365 5.96333 11.3942 5.73583 11.3942C5.57833 11.3942 5.42083 11.3767 5.26916 11.3475C5.58416 12.3333 6.5 13.0683 7.6025 13.0858C6.75083 13.7625 5.67166 14.1592 4.49333 14.1592C4.295 14.1592 4.09666 14.1475 3.89833 14.1242C5.00666 14.8358 6.325 15.25 7.73666 15.25C12.3333 15.25 14.8592 11.435 14.8592 8.12751C14.8592 8.01668 14.8592 7.91168 14.8533 7.80084C15.3433 7.45084 15.7633 7.00751 16.1017 6.50001Z" fill="#FF7042"/>
</svg>
